<svg width="25" height="24" viewBox="0 0 25 24" fill="none" xmlns="http://www.w3.org/2000/svg">
<path d="M7.5 7.38462V3.92308C7.5 3.67826 7.60079 3.44347 7.78019 3.27036C7.95958 3.09725 8.2029 3 8.45661 3H20.5434C20.7971 3 21.0404 3.09725 21.2198 3.27036C21.3992 3.44347 21.5 3.67826 21.5 3.92308V20.0769C21.5 20.3217 21.3992 20.5565 21.2198 20.7296C21.0404 20.9027 20.7971 21 20.5434 21H8.45661C8.2029 21 7.95958 20.9027 7.78019 20.7296C7.60079 20.5565 7.5 20.3217 7.5 20.0769V16.6154" stroke="#0E2C53" stroke-linecap="round" stroke-linejoin="round"/>
<path d="M5.5 10L7 12M7 12L5.5 14M7 12L8.5 10M7 12L8.5 14" stroke="#DC0032" stroke-linecap="round" stroke-linejoin="round"/>
<path d="M3.5 8.8V15.2C3.5 15.4122 3.57375 15.6157 3.70503 15.7657C3.8363 15.9157 4.01435 16 4.2 16H9.8C9.98565 16 10.1637 15.9157 10.295 15.7657C10.4262 15.6157 10.5 15.4122 10.5 15.2V8.8C10.5 8.58783 10.4262 8.38434 10.295 8.23431C10.1637 8.08429 9.98565 8 9.8 8H4.2C4.01435 8 3.8363 8.08429 3.70503 8.23431C3.57375 8.38434 3.5 8.58783 3.5 8.8Z" stroke="#DC0032" stroke-linecap="round" stroke-linejoin="round"/>
</svg>
