<svg width="21" height="20" viewBox="0 0 21 20" fill="none" xmlns="http://www.w3.org/2000/svg">
<g clip-path="url(#clip0_11761_74293)">
<path d="M10.0418 0C8.06394 0 6.13054 0.58649 4.48605 1.6853C2.84156 2.78412 1.55983 4.3459 0.802957 6.17317C0.0460809 8.00043 -0.151952 10.0111 0.2339 11.9509C0.619752 13.8907 1.57216 15.6725 2.97068 17.0711C4.36921 18.4696 6.15104 19.422 8.09085 19.8079C10.0307 20.1937 12.0413 19.9957 13.8686 19.2388C15.6958 18.4819 17.2576 17.2002 18.3564 15.5557C19.4553 13.9112 20.0418 11.9778 20.0418 10C20.0418 7.34784 18.9882 4.8043 17.1128 2.92893C15.2375 1.05357 12.6939 0 10.0418 0ZM16.5626 6.87083L8.64592 14.7875C8.53916 14.8971 8.41152 14.9842 8.27054 15.0437C8.12957 15.1032 7.9781 15.1339 7.82509 15.1339C7.67207 15.1339 7.52061 15.1032 7.37963 15.0437C7.23865 14.9842 7.11101 14.8971 7.00425 14.7875L3.52092 11.275C3.32209 11.0536 3.2157 10.7645 3.22367 10.467C3.23163 10.1696 3.35334 9.88655 3.56374 9.67615C3.77413 9.46576 4.05719 9.34405 4.35463 9.33608C4.65206 9.32812 4.94123 9.4345 5.16259 9.63333L7.83759 12.3083L14.9209 5.225C15.1423 5.02617 15.4314 4.91978 15.7289 4.92775C16.0263 4.93571 16.3094 5.05743 16.5198 5.26782C16.7302 5.47821 16.8519 5.76127 16.8598 6.05871C16.8678 6.35614 16.7614 6.64531 16.5626 6.86667V6.87083Z" fill="#077334"/>
</g>
<defs>
<clipPath id="clip0_11761_74293">
<rect width="20" height="20" fill="white" transform="translate(0.041748)"/>
</clipPath>
</defs>
</svg>
