<svg width="21" height="20" viewBox="0 0 21 20" fill="none" xmlns="http://www.w3.org/2000/svg">
<g clip-path="url(#clip0_11761_74297)">
<path d="M10.125 0.078125C4.64453 0.078125 0.203125 4.51953 0.203125 10C0.203125 15.4805 4.64453 19.9219 10.125 19.9219C15.6055 19.9219 20.0469 15.4805 20.0469 10C20.0469 4.51953 15.6055 0.078125 10.125 0.078125ZM14.7969 13.2656C15.1836 13.6523 15.1836 14.2812 14.7969 14.668C14.6016 14.8633 13.9727 15.25 13.3945 14.668L10.125 11.4023L6.85938 14.668C6.66406 14.8633 6.07031 15.2812 5.45703 14.668C5.07031 14.2812 5.07031 13.6523 5.45703 13.2656L8.72266 10L5.45703 6.73438C5.07031 6.34766 5.07031 5.71875 5.45703 5.33203C5.84375 4.94531 6.47266 4.94531 6.85938 5.33203L10.125 8.59766L13.3906 5.33203C13.7773 4.94531 14.4062 4.94531 14.793 5.33203C15.1797 5.71875 15.1797 6.34766 14.793 6.73438L11.5273 10L14.7969 13.2656Z" fill="#DC0032"/>
</g>
<defs>
<clipPath id="clip0_11761_74297">
<rect width="20" height="20" fill="white" transform="translate(0.125)"/>
</clipPath>
</defs>
</svg>
