<svg width="56" height="56" viewBox="0 0 56 56" fill="none" xmlns="http://www.w3.org/2000/svg">
<circle cx="28" cy="28" r="28" fill="#DFDFE0"/>
<g clip-path="url(#clip0_12202_80530)">
<path fill-rule="evenodd" clip-rule="evenodd" d="M13.0908 20.4881L13.2266 35.9185L16.6901 40.201L27.081 45.707L39.8485 39.4532L42.4971 33.1315L42.2255 12.6704L32.5819 12.3985L22.531 14.0299L13.3629 19.332L13.0908 20.4881Z" fill="#301506"/>
<path d="M27.9679 9.33624C21.9155 9.33624 16.636 10.5091 12.2754 12.8221V31.3135C12.2754 35.2044 13.736 38.4581 16.4985 40.7248C19.0635 42.8308 26.9961 46.3014 27.9682 46.7229C28.8901 46.3214 36.9167 42.7971 39.441 40.7248C42.202 38.4593 43.6629 35.2047 43.6629 31.3135V12.8221C39.3017 10.5088 34.0222 9.33594 27.9673 9.33594L27.9679 9.33624ZM36.9299 12.9167C38.7348 12.9403 40.507 13.0519 42.2202 13.2113V31.3134C42.2202 34.792 40.9591 37.602 38.5258 39.6081C36.3521 41.4 29.7972 44.3395 27.9682 45.1465C26.1147 44.3286 19.5434 41.352 17.4087 39.6089C14.9899 37.6371 13.7167 34.7604 13.7167 31.3141V20.7367C20.6677 14.3561 29.1084 12.8147 36.9293 12.9171L36.9299 12.9167ZM28.3771 21.3457C26.8879 21.3457 25.6863 21.6789 24.6971 22.3181V40.1283H27.4284V34.3744C27.701 34.4549 28.0966 34.5301 28.6571 34.5301C31.6868 34.5301 33.4281 31.7963 33.4281 27.8049C33.4281 23.8212 31.635 21.3457 28.3771 21.3457ZM37.7096 21.3457C35.9134 21.3979 34.0349 22.7003 34.0464 24.9082C34.051 26.362 34.4536 27.4493 36.7047 28.7713C37.906 29.4771 38.39 29.9422 38.4107 30.7998C38.4337 31.7532 37.7755 32.3281 36.7741 32.3242C35.9027 32.3173 34.8611 31.8333 34.1636 31.2117V33.7276C35.0188 34.2381 36.086 34.5754 37.1641 34.5754C39.8623 34.5754 41.0671 32.6677 41.1192 30.9195C41.1705 29.3262 40.7306 28.1206 38.4489 26.7786C37.4306 26.1809 36.6264 25.788 36.6532 24.7932C36.68 23.8222 37.4854 23.481 38.2587 23.4879C39.2127 23.4964 40.1356 24.0252 40.7052 24.61V22.2342C40.2252 21.864 39.2088 21.2998 37.7096 21.3457ZM15.1114 21.6224V30.2133C15.1114 33.1095 16.4801 34.5757 19.1814 34.5757C20.8529 34.5757 22.2528 34.1885 23.2957 33.4788V21.6224H20.5704V31.9233C20.2733 32.1272 19.8327 32.2574 19.2783 32.2574C18.0272 32.2574 17.8403 31.109 17.8403 30.3342V21.6226L15.1114 21.6224ZM28.3954 23.5467C29.9796 23.5467 30.6362 24.8127 30.6362 27.8744C30.6362 30.8618 29.8853 32.3051 28.3141 32.3051C27.9443 32.3051 27.6229 32.2135 27.4276 32.1399V23.7446C27.6489 23.6342 28.0249 23.5467 28.3954 23.5467Z" fill="#FAB80A"/>
</g>
<defs>
<clipPath id="clip0_12202_80530">
<rect width="32" height="38" fill="white" transform="translate(12 9)"/>
</clipPath>
</defs>
</svg>
