<svg width="176" height="56" viewBox="0 0 176 56" fill="none" xmlns="http://www.w3.org/2000/svg">
<path fill-rule="evenodd" clip-rule="evenodd" d="M0 40.4833L2.89077 26.7521H40.1042C38.6678 30.4179 33.3836 39.9361 17.1858 40.305C16.6267 40.3075 16.0826 40.31 15.5458 40.3125C15.5227 40.3122 15.5003 40.3125 15.477 40.3121C14.799 40.301 14.2046 40.3045 13.6882 40.3216C5.20401 40.365 0 40.4182 0 40.4833ZM53.4695 26.7521H67.8817L65.118 40.1881C60.194 40.1951 55.3365 40.2029 50.6302 40.2116C50.9596 38.4807 52.6661 30.499 53.4695 26.7521ZM82.4705 26.7521L119.614 26.7817C118.153 30.2631 112.531 39.8524 98.3978 40.1522L96.9768 40.1534C96.3546 40.1394 95.8203 40.1409 95.3575 40.1547C90.2364 40.159 85.0028 40.164 79.7535 40.1697L82.4705 26.7521ZM121.133 26.7521H157.277L154.476 40.1281C154.476 40.1281 147.637 40.1282 136.842 40.1315C133.791 40.0324 123.475 38.7977 121.133 26.7521ZM5.69432 13.4352L8.52279 3.66426e-06H24.0125C38.6279 0.181567 41.2565 10.339 41.7184 13.4352H5.69432ZM46.1884 3.66426e-06H86.7576L83.8514 13.4352H43.4823C44.2193 9.84832 45.8441 1.91293 46.1884 3.66426e-06ZM88.3728 3.66426e-06H104.093C118.425 0.972527 120.893 10.7964 121.299 13.4352H85.5491L88.3728 3.66426e-06ZM145.997 3.66426e-06H162.88L160.066 13.4352H123.211C127.9 -0.0553344 145.997 3.66426e-06 145.997 3.66426e-06Z" fill="#0E2C53"/>
<path fill-rule="evenodd" clip-rule="evenodd" d="M161.328 13.5637L175.654 13.4453L172.691 26.7622L158.203 26.7309L161.328 13.5637Z" fill="#DC0032"/>
<path fill-rule="evenodd" clip-rule="evenodd" d="M58.6511 49.1707L66.068 49.1094L64.5342 56.0036L57.0337 55.9874L58.6511 49.1707Z" fill="#DC0032"/>
<path fill-rule="evenodd" clip-rule="evenodd" d="M123.598 49.0769L131.015 49.0156L129.481 55.9099L121.98 55.8936L123.598 49.0769Z" fill="#DC0032"/>
<path fill-rule="evenodd" clip-rule="evenodd" d="M0 54.385V50.1814H2.98618V50.7017H0.56501V51.9587H2.80172V52.4498H0.56501V53.8588H3.03472V54.385H0ZM3.2745 54.385L4.71323 52.2335L3.35023 50.1814H4.04726L5.04621 51.7366L6.05972 50.1814H6.72278L5.35978 52.2218L6.7985 54.385H6.09855L5.02097 52.6837L3.96862 54.385H3.2745ZM7.81784 52.1049H8.77214C9.10415 52.1049 9.3352 52.0513 9.46723 51.9451C9.59829 51.8379 9.6643 51.6557 9.6643 51.3965C9.6643 51.1461 9.59925 50.9677 9.4682 50.8586C9.33811 50.7505 9.11968 50.6959 8.81485 50.6959H7.81784V52.1049ZM7.24702 54.385V50.1814H8.78961C9.04008 50.1814 9.23036 50.1941 9.36141 50.2184C9.49247 50.2428 9.60896 50.2837 9.71187 50.3412C9.88273 50.4347 10.0128 50.5721 10.1041 50.7553C10.1953 50.9375 10.241 51.1519 10.241 51.3975C10.241 51.6313 10.1953 51.8379 10.1041 52.0172C10.0128 52.1955 9.88079 52.3387 9.70604 52.445C9.60508 52.5063 9.48761 52.5492 9.3517 52.5746C9.21579 52.6009 8.99251 52.6135 8.68185 52.6135H7.81784V54.385H7.24702ZM11.4748 50.6725V52.099H12.4466C12.798 52.099 13.0456 52.0415 13.1912 51.9275C13.3359 51.8135 13.4087 51.6226 13.4087 51.3556C13.4087 51.1061 13.3407 50.9297 13.2038 50.8265C13.0669 50.7241 12.8145 50.6725 12.4466 50.6725H11.4748ZM10.9157 50.1814H12.5408C12.8039 50.1814 12.998 50.1931 13.1223 50.2155C13.2465 50.2389 13.3582 50.2769 13.4562 50.3295C13.6329 50.4269 13.7669 50.5624 13.8591 50.7349C13.9513 50.9083 13.997 51.112 13.997 51.3458C13.997 51.5719 13.9484 51.7658 13.8523 51.9266C13.7552 52.0873 13.6116 52.213 13.4203 52.3046C13.5834 52.3504 13.6989 52.4274 13.7688 52.5356C13.8378 52.6437 13.8805 52.8279 13.898 53.0861L13.9465 53.7799C13.9552 53.928 13.9746 54.0391 14.0047 54.1122C14.0339 54.1853 14.0775 54.2379 14.1368 54.2681V54.385H13.4795C13.4261 54.2973 13.3893 54.1102 13.3679 53.8228V53.8062L13.3329 53.2576C13.3145 52.976 13.2543 52.7938 13.1543 52.71C13.0534 52.6262 12.8029 52.5843 12.401 52.5843H11.4807V54.385H10.9157V50.1814ZM14.7833 54.385V50.1814H17.7695V50.7017H15.3483V51.9587H17.585V52.4498H15.3483V53.8588H17.818V54.385H14.7833ZM18.3141 52.9994H18.8616C18.8675 53.3044 18.9684 53.547 19.1645 53.7283C19.3616 53.9085 19.6237 53.9991 19.9518 53.9991C20.2761 53.9991 20.5324 53.9309 20.7188 53.7935C20.9061 53.6561 20.9993 53.4691 20.9993 53.2333C20.9993 52.9117 20.6479 52.6661 19.946 52.4985C19.9043 52.4888 19.8722 52.482 19.8499 52.4761C19.281 52.3407 18.9053 52.1897 18.7228 52.024C18.5393 51.8574 18.4481 51.6206 18.4481 51.3146C18.4481 50.9395 18.585 50.6384 18.8578 50.4114C19.1306 50.1843 19.4936 50.0703 19.947 50.0703C20.4091 50.0703 20.7731 50.1892 21.0382 50.4279C21.3042 50.6657 21.4381 50.9931 21.442 51.4092L20.9003 51.4121C20.8809 51.1324 20.7858 50.9171 20.6139 50.768C20.4421 50.6189 20.2072 50.5439 19.9091 50.5439C19.6305 50.5439 19.4072 50.6053 19.2403 50.7271C19.0733 50.8498 18.9898 51.0126 18.9898 51.2152C18.9898 51.5397 19.3354 51.7824 20.0266 51.9412C20.1285 51.9665 20.2072 51.985 20.2625 51.9987L20.3227 52.0123C20.7731 52.1214 21.0721 52.2384 21.2207 52.3641C21.3323 52.4596 21.4178 52.5755 21.476 52.711C21.5352 52.8474 21.5643 52.9994 21.5643 53.167C21.5643 53.5733 21.4197 53.8959 21.1304 54.1356C20.8421 54.3762 20.4508 54.4961 19.9577 54.4961C19.4499 54.4961 19.0539 54.3675 18.7704 54.1093C18.4869 53.851 18.3355 53.4808 18.3141 52.9994ZM22.1847 52.9994H22.7322C22.738 53.3044 22.839 53.547 23.0351 53.7283C23.2322 53.9085 23.4943 53.9991 23.8224 53.9991C24.1467 53.9991 24.403 53.9309 24.5893 53.7935C24.7767 53.6561 24.8699 53.4691 24.8699 53.2333C24.8699 52.9117 24.5185 52.6661 23.8166 52.4985C23.7748 52.4888 23.7428 52.482 23.7205 52.4761C23.1516 52.3407 22.7759 52.1897 22.5934 52.024C22.4099 51.8574 22.3187 51.6206 22.3187 51.3146C22.3187 50.9395 22.4555 50.6384 22.7283 50.4114C23.0011 50.1843 23.3642 50.0703 23.8176 50.0703C24.2797 50.0703 24.6437 50.1892 24.9087 50.4279C25.1747 50.6657 25.3087 50.9931 25.3126 51.4092L24.7709 51.4121C24.7515 51.1324 24.6563 50.9171 24.4845 50.768C24.3127 50.6189 24.0777 50.5439 23.7797 50.5439C23.5011 50.5439 23.2778 50.6053 23.1108 50.7271C22.9438 50.8498 22.8604 51.0126 22.8604 51.2152C22.8604 51.5397 23.206 51.7824 23.8972 51.9412C23.9991 51.9665 24.0777 51.985 24.1331 51.9987L24.1933 52.0123C24.6437 52.1214 24.9427 52.2384 25.0913 52.3641C25.2029 52.4596 25.2883 52.5755 25.3466 52.711C25.4058 52.8474 25.4349 52.9994 25.4349 53.167C25.4349 53.5733 25.2903 53.8959 25.001 54.1356C24.7126 54.3762 24.3214 54.4961 23.8282 54.4961C23.3205 54.4961 22.9244 54.3675 22.641 54.1093C22.3575 53.851 22.206 53.4808 22.1847 52.9994ZM28.3065 52.1049H29.2608C29.5928 52.1049 29.8239 52.0513 29.9559 51.9451C30.087 51.8379 30.153 51.6557 30.153 51.3965C30.153 51.1461 30.088 50.9677 29.9569 50.8586C29.8268 50.7505 29.6084 50.6959 29.3035 50.6959H28.3065V52.1049ZM27.7357 54.385V50.1814H29.2783C29.5288 50.1814 29.719 50.1941 29.8501 50.2184C29.9812 50.2428 30.0977 50.2837 30.2006 50.3412C30.3714 50.4347 30.5015 50.5721 30.5928 50.7553C30.684 50.9375 30.7297 51.1519 30.7297 51.3975C30.7297 51.6313 30.684 51.8379 30.5928 52.0172C30.5015 52.1955 30.3695 52.3387 30.1947 52.445C30.0938 52.5063 29.9763 52.5492 29.8404 52.5746C29.7045 52.6009 29.4812 52.6135 29.1705 52.6135H28.3065V54.385H27.7357ZM31.7548 52.6369H33.0605L32.412 50.7836L31.7548 52.6369ZM30.5433 54.385L32.0994 50.1814H32.7276L34.2886 54.385H33.6712L33.2275 53.128H31.5791L31.1325 54.385H30.5433ZM35.2798 50.6725V52.099H36.2516C36.603 52.099 36.8505 52.0415 36.9962 51.9275C37.1408 51.8135 37.2136 51.6226 37.2136 51.3556C37.2136 51.1061 37.1457 50.9297 37.0088 50.8265C36.8719 50.7241 36.6195 50.6725 36.2516 50.6725H35.2798ZM34.7206 50.1814H36.3457C36.6088 50.1814 36.803 50.1931 36.9272 50.2155C37.0515 50.2389 37.1631 50.2769 37.2612 50.3295C37.4379 50.4269 37.5718 50.5624 37.6641 50.7349C37.7563 50.9083 37.8019 51.112 37.8019 51.3458C37.8019 51.5719 37.7534 51.7658 37.6573 51.9266C37.5602 52.0873 37.4165 52.213 37.2253 52.3046C37.3884 52.3504 37.5039 52.4274 37.5738 52.5356C37.6427 52.6437 37.6854 52.8279 37.7029 53.0861L37.7514 53.7799C37.7602 53.928 37.7796 54.0391 37.8097 54.1122C37.8388 54.1853 37.8825 54.2379 37.9417 54.2681V54.385H37.2845C37.2311 54.2973 37.1942 54.1102 37.1728 53.8228V53.8062L37.1379 53.2576C37.1194 52.976 37.0593 52.7938 36.9593 52.71C36.8583 52.6262 36.6078 52.5843 36.2059 52.5843H35.2856V54.385H34.7206V50.1814ZM41.5181 52.824H42.0715C42.0472 53.3356 41.8725 53.7429 41.5492 54.0469C41.2259 54.3499 40.8085 54.5019 40.2969 54.5019C39.7066 54.5019 39.2445 54.3002 38.9096 53.8968C38.5747 53.4934 38.4077 52.9341 38.4077 52.2208C38.4077 51.5621 38.5834 51.0389 38.9339 50.6511C39.2843 50.2642 39.7581 50.0703 40.3532 50.0703C40.8269 50.0703 41.2152 50.1931 41.5172 50.4386C41.8201 50.6842 41.9948 51.0194 42.0424 51.4442H41.4832C41.4298 51.1665 41.3036 50.9522 41.1055 50.8031C40.9065 50.654 40.6473 50.579 40.3289 50.579C39.9047 50.579 39.5756 50.728 39.3416 51.0272C39.1076 51.3263 38.9902 51.7473 38.9902 52.292C38.9902 52.8055 39.1115 53.2177 39.3552 53.5275C39.5989 53.8384 39.9221 53.9933 40.324 53.9933C40.6667 53.9933 40.9483 53.8861 41.1667 53.6727C41.3861 53.4583 41.5026 53.1758 41.5181 52.824ZM42.7404 54.385V50.1814H45.7265V50.7017H43.3054V51.9587H45.5421V52.4498H43.3054V53.8588H45.7751V54.385H42.7404ZM46.4634 54.385V50.1814H47.04V53.853H49.1253V54.385H46.4634ZM49.3884 52.9994H49.9359C49.9417 53.3044 50.0427 53.547 50.2388 53.7283C50.4359 53.9085 50.698 53.9991 51.0261 53.9991C51.3504 53.9991 51.6067 53.9309 51.7931 53.7935C51.9804 53.6561 52.0736 53.4691 52.0736 53.2333C52.0736 52.9117 51.7222 52.6661 51.0203 52.4985C50.9786 52.4888 50.9465 52.482 50.9242 52.4761C50.3553 52.3407 49.9796 52.1897 49.7971 52.024C49.6136 51.8574 49.5224 51.6206 49.5224 51.3146C49.5224 50.9395 49.6592 50.6384 49.932 50.4114C50.2048 50.1843 50.5679 50.0703 51.0213 50.0703C51.4834 50.0703 51.8474 50.1892 52.1125 50.4279C52.3785 50.6657 52.5124 50.9931 52.5163 51.4092L51.9746 51.4121C51.9552 51.1324 51.86 50.9171 51.6882 50.768C51.5164 50.6189 51.2814 50.5439 50.9834 50.5439C50.7048 50.5439 50.4815 50.6053 50.3145 50.7271C50.1476 50.8498 50.0641 51.0126 50.0641 51.2152C50.0641 51.5397 50.4097 51.7824 51.1009 51.9412C51.2028 51.9665 51.2814 51.985 51.3368 51.9987L51.397 52.0123C51.8474 52.1214 52.1464 52.2384 52.295 52.3641C52.4066 52.4596 52.492 52.5755 52.5503 52.711C52.6095 52.8474 52.6386 52.9994 52.6386 53.167C52.6386 53.5733 52.494 53.8959 52.2047 54.1356C51.9163 54.3762 51.5251 54.4961 51.032 54.4961C50.5242 54.4961 50.1281 54.3675 49.8447 54.1093C49.5612 53.851 49.4097 53.4808 49.3884 52.9994Z" fill="#0E2C53"/>
<path fill-rule="evenodd" clip-rule="evenodd" d="M71.3572 54.4045V50.2009H71.928V54.4045H71.3572ZM72.9541 54.4045V50.2009H73.5774L75.5365 53.2547C75.5801 53.321 75.618 53.3834 75.65 53.4428C75.6821 53.5013 75.7073 53.5568 75.7267 53.6084V50.2009H76.2684V54.4045H75.651L73.6521 51.3079C73.622 51.2611 73.5939 51.2114 73.5687 51.1598C73.5424 51.1081 73.5182 51.0545 73.4958 50.997V54.4045H72.9541ZM78.2052 54.4045V50.7096H76.8829V50.2009H80.0982V50.7096H78.776V54.4045H78.2052ZM80.7224 54.4045V50.2009H83.7086V50.7213H81.2875V51.9783H83.5242V52.4694H81.2875V53.8784H83.7572V54.4045H80.7224ZM85.1231 50.692V52.1186H86.0948C86.4463 52.1186 86.6938 52.0611 86.8394 51.9471C86.9841 51.8331 87.0569 51.6421 87.0569 51.3751C87.0569 51.1256 86.9889 50.9493 86.8521 50.846C86.7152 50.7437 86.4628 50.692 86.0948 50.692H85.1231ZM84.5639 50.2009H86.189C86.4521 50.2009 86.6462 50.2126 86.7705 50.235C86.8948 50.2584 87.0064 50.2964 87.1045 50.349C87.2811 50.4465 87.4151 50.5819 87.5073 50.7544C87.5996 50.9278 87.6452 51.1315 87.6452 51.3654C87.6452 51.5914 87.5967 51.7853 87.5005 51.9461C87.4035 52.1069 87.2598 52.2326 87.0685 52.3242C87.2316 52.37 87.3472 52.4469 87.4171 52.5551C87.486 52.6633 87.5287 52.8474 87.5462 53.1056L87.5947 53.7994C87.6034 53.9475 87.6229 54.0586 87.653 54.1317C87.6821 54.2048 87.7258 54.2574 87.785 54.2876V54.4045H87.1278C87.0744 54.3168 87.0375 54.1298 87.0161 53.8423V53.8257L86.9812 53.2771C86.9627 52.9955 86.9025 52.8133 86.8025 52.7295C86.7016 52.6457 86.4511 52.6038 86.0492 52.6038H85.1289V54.4045H84.5639V50.2009ZM88.5441 54.4045V50.2009H89.1674L91.1265 53.2547C91.1702 53.321 91.208 53.3834 91.2401 53.4428C91.2721 53.5013 91.2973 53.5568 91.3167 53.6084V50.2009H91.8584V54.4045H91.241L89.2421 51.3079C89.2121 51.2611 89.1839 51.2114 89.1587 51.1598C89.1325 51.1081 89.1082 51.0545 89.0859 50.997V54.4045H88.5441ZM93.6146 52.6564H94.9203L94.2719 50.8031L93.6146 52.6564ZM92.4031 54.4045L93.9593 50.2009H94.5874L96.1484 54.4045H95.531L95.0873 53.1475H93.4389L92.9923 54.4045H92.4031ZM97.4172 54.4045V50.7096H96.095V50.2009H99.3103V50.7096H97.9881V54.4045H97.4172ZM99.9461 54.4045V50.2009H100.517V54.4045H99.9461ZM101.957 52.3057C101.957 52.8445 102.08 53.2654 102.328 53.5695C102.575 53.8725 102.918 54.0245 103.356 54.0245C103.792 54.0245 104.133 53.8725 104.379 53.5695C104.624 53.2654 104.747 52.8445 104.747 52.3057C104.747 51.7649 104.624 51.3429 104.379 51.0409C104.133 50.7378 103.792 50.5868 103.356 50.5868C102.918 50.5868 102.575 50.7378 102.328 51.0409C102.08 51.3429 101.957 51.7649 101.957 52.3057ZM101.368 52.3057C101.368 51.6109 101.544 51.0682 101.896 50.6764C102.248 50.2857 102.734 50.0898 103.356 50.0898C103.976 50.0898 104.46 50.2847 104.811 50.6755C105.16 51.0652 105.335 51.609 105.335 52.3057C105.335 53.0004 105.16 53.5432 104.811 53.9349C104.46 54.3256 103.976 54.5215 103.356 54.5215C102.734 54.5215 102.248 54.3256 101.896 53.9349C101.544 53.5432 101.368 53.0004 101.368 52.3057ZM106.164 54.4045V50.2009H106.787L108.746 53.2547C108.79 53.321 108.828 53.3834 108.86 53.4428C108.892 53.5013 108.917 53.5568 108.937 53.6084V50.2009H109.478V54.4045H108.861L106.862 51.3079C106.832 51.2611 106.804 51.2114 106.779 51.1598C106.752 51.1081 106.728 51.0545 106.706 50.997V54.4045H106.164ZM111.235 52.6564H112.54L111.892 50.8031L111.235 52.6564ZM110.023 54.4045L111.579 50.2009H112.207L113.768 54.4045H113.151L112.707 53.1475H111.059L110.612 54.4045H110.023ZM114.319 54.4045V50.2009H114.895V53.8725H116.981V54.4045H114.319Z" fill="#0E2C53"/>
<path fill-rule="evenodd" clip-rule="evenodd" d="M135.48 54.4045V50.2009H138.466V50.7213H136.045V51.9783H138.282V52.4694H136.045V53.8784H138.515V54.4045H135.48ZM138.975 53.0891V52.6272H140.385V53.0891H138.975ZM144.085 52.8435H144.639C144.614 53.3551 144.44 53.7624 144.116 54.0664C143.793 54.3695 143.376 54.5215 142.864 54.5215C142.274 54.5215 141.812 54.3198 141.477 53.9163C141.142 53.5129 140.975 52.9536 140.975 52.2404C140.975 51.5817 141.151 51.0584 141.501 50.6706C141.852 50.2838 142.325 50.0898 142.92 50.0898C143.394 50.0898 143.782 50.2126 144.084 50.4582C144.387 50.7037 144.562 51.0389 144.61 51.4638H144.05C143.997 51.1861 143.871 50.9717 143.673 50.8226C143.474 50.6735 143.215 50.5985 142.896 50.5985C142.472 50.5985 142.143 50.7476 141.909 51.0467C141.675 51.3459 141.557 51.7668 141.557 52.3115C141.557 52.825 141.679 53.2372 141.922 53.5471C142.166 53.8579 142.489 54.0128 142.891 54.0128C143.234 54.0128 143.516 53.9056 143.734 53.6922C143.953 53.4779 144.07 53.1953 144.085 52.8435ZM145.834 52.3057C145.834 52.8445 145.957 53.2654 146.205 53.5695C146.452 53.8725 146.795 54.0245 147.233 54.0245C147.67 54.0245 148.01 53.8725 148.256 53.5695C148.502 53.2654 148.624 52.8445 148.624 52.3057C148.624 51.7649 148.502 51.3429 148.256 51.0409C148.01 50.7378 147.67 50.5868 147.233 50.5868C146.795 50.5868 146.452 50.7378 146.205 51.0409C145.957 51.3429 145.834 51.7649 145.834 52.3057ZM145.245 52.3057C145.245 51.6109 145.421 51.0682 145.773 50.6764C146.125 50.2857 146.611 50.0898 147.233 50.0898C147.853 50.0898 148.337 50.2847 148.688 50.6755C149.037 51.0652 149.212 51.609 149.212 52.3057C149.212 53.0004 149.037 53.5432 148.688 53.9349C148.337 54.3256 147.853 54.5215 147.233 54.5215C146.611 54.5215 146.125 54.3256 145.773 53.9349C145.421 53.5432 145.245 53.0004 145.245 52.3057ZM150.571 50.8226V54.4045H150.047V50.2009H150.862L151.9 53.4175C151.93 53.5081 151.953 53.5792 151.967 53.6299C151.981 53.6806 151.992 53.7244 151.999 53.7624C152.015 53.6922 152.029 53.6289 152.045 53.5743C152.059 53.5188 152.076 53.4662 152.093 53.4175L153.167 50.2009H153.985V54.4045H153.431V50.8226C153.418 50.884 153.403 50.9454 153.386 51.0068C153.369 51.0691 153.351 51.1305 153.332 51.1909L152.255 54.4045H151.719L150.665 51.1909C150.646 51.1383 150.629 51.0808 150.614 51.0204C150.598 50.959 150.585 50.8937 150.571 50.8226ZM155.524 50.8226V54.4045H155V50.2009H155.815L156.853 53.4175C156.883 53.5081 156.906 53.5792 156.92 53.6299C156.934 53.6806 156.945 53.7244 156.952 53.7624C156.968 53.6922 156.982 53.6289 156.998 53.5743C157.012 53.5188 157.029 53.4662 157.046 53.4175L158.12 50.2009H158.938V54.4045H158.384V50.8226C158.371 50.884 158.356 50.9454 158.339 51.0068C158.322 51.0691 158.304 51.1305 158.285 51.1909L157.208 54.4045H156.672L155.618 51.1909C155.599 51.1383 155.582 51.0808 155.567 51.0204C155.551 50.959 155.538 50.8937 155.524 50.8226ZM159.953 54.4045V50.2009H162.939V50.7213H160.518V51.9783H162.755V52.4694H160.518V53.8784H162.988V54.4045H159.953ZM164.354 50.692V52.1186H165.325C165.677 52.1186 165.924 52.0611 166.07 51.9471C166.215 51.8331 166.287 51.6421 166.287 51.3751C166.287 51.1256 166.22 50.9493 166.083 50.846C165.946 50.7437 165.693 50.692 165.325 50.692H164.354ZM163.794 50.2009H165.42C165.683 50.2009 165.877 50.2126 166.001 50.235C166.125 50.2584 166.237 50.2964 166.335 50.349C166.512 50.4465 166.646 50.5819 166.738 50.7544C166.83 50.9278 166.876 51.1315 166.876 51.3654C166.876 51.5914 166.827 51.7853 166.731 51.9461C166.634 52.1069 166.49 52.2326 166.299 52.3242C166.462 52.37 166.578 52.4469 166.648 52.5551C166.717 52.6633 166.759 52.8474 166.777 53.1056L166.825 53.7994C166.834 53.9475 166.853 54.0586 166.884 54.1317C166.913 54.2048 166.956 54.2574 167.016 54.2876V54.4045H166.358C166.305 54.3168 166.268 54.1298 166.247 53.8423V53.8257L166.212 53.2771C166.193 52.9955 166.133 52.8133 166.033 52.7295C165.932 52.6457 165.682 52.6038 165.28 52.6038H164.359V54.4045H163.794V50.2009ZM170.71 52.8435H171.264C171.24 53.3551 171.065 53.7624 170.741 54.0664C170.418 54.3695 170.001 54.5215 169.489 54.5215C168.899 54.5215 168.437 54.3198 168.102 53.9163C167.767 53.5129 167.6 52.9536 167.6 52.2404C167.6 51.5817 167.776 51.0584 168.126 50.6706C168.477 50.2838 168.95 50.0898 169.545 50.0898C170.019 50.0898 170.408 50.2126 170.709 50.4582C171.012 50.7037 171.187 51.0389 171.235 51.4638H170.675C170.622 51.1861 170.496 50.9717 170.298 50.8226C170.099 50.6735 169.84 50.5985 169.521 50.5985C169.097 50.5985 168.768 50.7476 168.534 51.0467C168.3 51.3459 168.182 51.7668 168.182 52.3115C168.182 52.825 168.304 53.2372 168.547 53.5471C168.791 53.8579 169.114 54.0128 169.516 54.0128C169.859 54.0128 170.141 53.9056 170.359 53.6922C170.578 53.4779 170.695 53.1953 170.71 52.8435ZM172.051 54.4045V50.2009H175.037V50.7213H172.616V51.9783H174.853V52.4694H172.616V53.8784H175.086V54.4045H172.051Z" fill="#0E2C53"/>
</svg>
