<svg width="32" height="32" viewBox="0 0 32 32" fill="none" xmlns="http://www.w3.org/2000/svg">
<rect width="32" height="32" rx="4" fill="#FFEBF0"/>
<path fill-rule="evenodd" clip-rule="evenodd" d="M7.4288 25.0714C7.18093 25.0715 6.93732 25.007 6.7219 24.8844C6.50648 24.7618 6.32667 24.5853 6.20015 24.3721C6.07362 24.159 6.00472 23.9166 6.00023 23.6688C5.99575 23.4209 6.05582 23.1762 6.17455 22.9586L14.7457 7.24475C14.8686 7.01938 15.0499 6.83127 15.2707 6.70022C15.4914 6.56916 15.7433 6.5 16 6.5C16.2567 6.5 16.5086 6.56916 16.7293 6.70022C16.9501 6.83127 17.1314 7.01938 17.2543 7.24475L25.8255 22.9586C25.9442 23.1762 26.0043 23.4209 25.9998 23.6688C25.9953 23.9166 25.9264 24.159 25.7999 24.3721C25.6733 24.5853 25.4935 24.7618 25.2781 24.8844C25.0627 25.007 24.8191 25.0715 24.5712 25.0714H7.4288ZM7.4288 23.6429H24.5712L16 7.92902L7.4288 23.6429Z" fill="#DC0032"/>
<path d="M15.0713 12.4719L15.4142 19.4417L16.5713 19.4432L16.9284 12.4719H15.0713Z" fill="#D24A5B"/>
<path d="M15.6295 22.0909C15.7396 22.1366 15.8579 22.1592 15.977 22.1574C16.0934 22.1577 16.2087 22.1346 16.3159 22.0894C16.4232 22.0443 16.5202 21.978 16.6013 21.8945C16.6881 21.8129 16.757 21.7141 16.8035 21.6044C16.8499 21.4947 16.8731 21.3765 16.8713 21.2574C16.8713 21.0031 16.7827 20.7917 16.6056 20.6174C16.427 20.4431 16.2185 20.3574 15.977 20.3574C15.8581 20.3556 15.7401 20.3779 15.63 20.4231C15.52 20.4683 15.4203 20.5354 15.3371 20.6203C15.1599 20.796 15.0713 21.0088 15.0713 21.2574C15.07 21.3757 15.0928 21.493 15.1385 21.6021C15.1842 21.7111 15.2518 21.8097 15.3371 21.8917C15.4199 21.9774 15.5194 22.0452 15.6295 22.0909Z" fill="#D24A5B"/>
</svg>
