<svg width="52" height="52" viewBox="0 0 52 52" fill="none" xmlns="http://www.w3.org/2000/svg">
<rect x="0.5" y="0.5" width="51" height="51" rx="7.5" fill="white" stroke="#DBDFE5"/>
<path fill-rule="evenodd" clip-rule="evenodd" d="M25.3756 16C24.6844 16 24.1244 16.56 24.1244 17.25L23.9744 18.3C23.9437 18.5148 23.8575 18.7179 23.7245 18.8893C23.5915 19.0607 23.4161 19.1945 23.2156 19.2776C23.0152 19.3606 22.7966 19.3901 22.5813 19.3631C22.366 19.336 22.1615 19.2534 21.9878 19.1233L21.1389 18.4867C21.0228 18.3706 20.885 18.2785 20.7334 18.2157C20.5817 18.1529 20.4192 18.1205 20.255 18.1205C20.0908 18.1205 19.9283 18.1529 19.7766 18.2157C19.625 18.2785 19.4872 18.3706 19.3711 18.4867L18.4867 19.3711C17.9978 19.86 17.9978 20.65 18.4867 21.1378L19.1233 21.9878C19.2534 22.1614 19.336 22.3658 19.3631 22.581C19.3902 22.7962 19.3608 23.0148 19.2779 23.2152C19.195 23.4156 19.0613 23.591 18.89 23.7242C18.7188 23.8573 18.5158 23.9435 18.3011 23.9744L17.25 24.1256C16.56 24.1256 16 24.6844 16 25.3744V26.6256C16 27.3144 16.56 27.8744 17.25 27.8744L18.3 28.0256C18.5148 28.0563 18.7179 28.1425 18.8893 28.2755C19.0607 28.4085 19.1945 28.5839 19.2776 28.7844C19.3606 28.9848 19.3901 29.2034 19.3631 29.4187C19.336 29.634 19.2534 29.8385 19.1233 30.0122L18.4867 30.8611C17.9978 31.35 17.9978 32.1411 18.4867 32.6289L19.3711 33.5133C19.86 34.0022 20.65 34.0022 21.1378 33.5133L21.9878 32.8767C22.1614 32.7466 22.3658 32.664 22.581 32.6369C22.7962 32.6098 23.0148 32.6392 23.2152 32.7221C23.4156 32.805 23.591 32.9387 23.7242 33.11C23.8573 33.2812 23.9435 33.4842 23.9744 33.6989L24.1256 34.75C24.1256 35.44 24.6844 36 25.3744 36H26.6256C27.3144 36 27.8744 35.44 27.8744 34.75L28.0256 33.7C28.0563 33.4852 28.1425 33.2821 28.2755 33.1107C28.4085 32.9393 28.5839 32.8055 28.7844 32.7224C28.9848 32.6394 29.2034 32.6099 29.4187 32.6369C29.634 32.664 29.8385 32.7466 30.0122 32.8767L30.8611 33.5133C31.35 34.0022 32.1411 34.0022 32.6289 33.5133L33.5133 32.6289C34.0011 32.14 34.0011 31.35 33.5133 30.8622L32.8767 30.0122C32.7466 29.8386 32.664 29.6342 32.6369 29.419C32.6098 29.2038 32.6392 28.9852 32.7221 28.7848C32.805 28.5844 32.9387 28.409 33.11 28.2759C33.2812 28.1427 33.4842 28.0565 33.6989 28.0256L34.75 27.8744C35.44 27.8744 36 27.3156 36 26.6256V25.3744C36 24.6856 35.44 24.1256 34.75 24.1256L33.7 23.9744C33.4852 23.9437 33.2821 23.8575 33.1107 23.7245C32.9393 23.5915 32.8055 23.4161 32.7224 23.2156C32.6394 23.0152 32.6099 22.7966 32.6369 22.5813C32.664 22.366 32.7466 22.1615 32.8767 21.9878L33.5133 21.1389C34.0011 20.65 34.0011 19.8589 33.5133 19.3711L32.6289 18.4867C32.3945 18.2526 32.0768 18.1211 31.7456 18.1211C31.4143 18.1211 31.0966 18.2526 30.8622 18.4867L30.0122 19.1233C29.8386 19.2534 29.6342 19.336 29.419 19.3631C29.2038 19.3902 28.9852 19.3608 28.7848 19.2779C28.5844 19.195 28.409 19.0613 28.2759 18.89C28.1427 18.7188 28.0565 18.5158 28.0256 18.3011L27.8744 17.25C27.8744 16.56 27.3156 16 26.6256 16H25.3756ZM26 28.5C26.663 28.5 27.2989 28.2366 27.7678 27.7678C28.2366 27.2989 28.5 26.663 28.5 26C28.5 25.337 28.2366 24.7011 27.7678 24.2322C27.2989 23.7634 26.663 23.5 26 23.5C25.337 23.5 24.7011 23.7634 24.2322 24.2322C23.7634 24.7011 23.5 25.337 23.5 26C23.5 26.663 23.7634 27.2989 24.2322 27.7678C24.7011 28.2366 25.337 28.5 26 28.5Z" fill="#0E2C53"/>
</svg>
