<svg width="19" height="22" viewBox="0 0 19 22" fill="none" xmlns="http://www.w3.org/2000/svg">
<path d="M9.21778 21.8335C10.4722 21.8335 11.4985 20.8585 11.4985 19.6668H6.93708C6.93708 20.2415 7.17736 20.7926 7.60508 21.1989C8.03279 21.6052 8.6129 21.8335 9.21778 21.8335ZM16.0599 15.3335V9.91683C16.0599 6.591 14.1897 3.80683 10.9283 3.07016V2.3335C10.9283 1.43433 10.1643 0.708496 9.21778 0.708496C8.27129 0.708496 7.50725 1.43433 7.50725 2.3335V3.07016C4.23445 3.80683 2.37567 6.58016 2.37567 9.91683V15.3335L0.0949707 17.5002V18.5835H18.3406V17.5002L16.0599 15.3335Z" fill="#0E2C53"/>
</svg>
